ffmpeg version 2023-03-27-git-f7abe92bd7-full_build-www.gyan.dev Copyright (c) 2000-2023 the FFmpeg developers
  built with gcc 12.2.0 (Rev10, Built by MSYS2 project)
  configuration: --enable-gpl --enable-version3 --enable-static --disable-w32threads --disable-autodetect --enable-fontconfig --enable-iconv --enable-gnutls --enable-libxml2 --enable-gmp --enable-bzlib --enable-lzma --enable-libsnappy --enable-zlib --enable-librist --enable-libsrt --enable-libssh --enable-libzmq --enable-avisynth --enable-libbluray --enable-libcaca --enable-sdl2 --enable-libaribb24 --enable-libdav1d --enable-libdavs2 --enable-libuavs3d --enable-libzvbi --enable-librav1e --enable-libsvtav1 --enable-libwebp --enable-libx264 --enable-libx265 --enable-libxavs2 --enable-libxvid --enable-libaom --enable-libjxl --enable-libopenjpeg --enable-libvpx --enable-mediafoundation --enable-libass --enable-frei0r --enable-libfreetype --enable-libfribidi --enable-liblensfun --enable-libvidstab --enable-libvmaf --enable-libzimg --enable-amf --enable-cuda-llvm --enable-cuvid --enable-ffnvcodec --enable-nvdec --enable-nvenc --enable-d3d11va --enable-dxva2 --enable-libvpl --enable-libshaderc --enable-vulkan --enable-libplacebo --enable-opencl --enable-libcdio --enable-libgme --enable-libmodplug --enable-libopenmpt --enable-libopencore-amrwb --enable-libmp3lame --enable-libshine --enable-libtheora --enable-libtwolame --enable-libvo-amrwbenc --enable-libilbc --enable-libgsm --enable-libopencore-amrnb --enable-libopus --enable-libspeex --enable-libvorbis --enable-ladspa --enable-libbs2b --enable-libflite --enable-libmysofa --enable-librubberband --enable-libsoxr --enable-chromaprint
  libavutil      58.  5.100 / 58.  5.100
  libavcodec     60.  7.100 / 60.  7.100
  libavformat    60.  4.100 / 60.  4.100
  libavdevice    60.  2.100 / 60.  2.100
  libavfilter     9.  5.100 /  9.  5.100
  libswscale      7.  2.100 /  7.  2.100
  libswresample   4. 11.100 /  4. 11.100
  libpostproc    57.  2.100 / 57.  2.100
Input #0, matroska,webm, from 'C:\Users\forju\AppData\Local\Temp\tmpr3pmt9z4\input_y2mate.com_-_Mildly_Interesting_720p.webm':
  Metadata:
    COMPATIBLE_BRANDS: isommp42
    MAJOR_BRAND     : mp42
    MINOR_VERSION   : 0
    ENCODER         : Lavf59.27.100
  Duration: 00:00:38.65, start: -0.007000, bitrate: 1500 kb/s
  Stream #0:0: Video: vp9 (Profile 0), yuv420p(tv, bt709, progressive), 720x1280, SAR 1:1 DAR 9:16, 29.97 fps, 29.97 tbr, 1k tbn (default)
    Metadata:
      HANDLER_NAME    : ISO Media file produced by Google Inc. Created on: 09/23/2023.
      VENDOR_ID       : [0][0][0][0]
      ENCODER         : Lavc59.37.100 libvpx-vp9
      DURATION        : 00:00:38.645000000
  Stream #0:1(eng): Audio: opus, 48000 Hz, stereo, fltp (default)
    Metadata:
      HANDLER_NAME    : ISO Media file produced by Google Inc. Created on: 09/23/2023.
      VENDOR_ID       : [0][0][0][0]
      ENCODER         : Lavc59.37.100 libopus
      DURATION        : 00:00:38.646000000
Stream mapping:
  Stream #0:0 -> #0:0 (vp9 (native) -> h264 (libx264))
  Stream #0:1 -> #0:1 (opus (native) -> aac (native))
Press [q] to stop, [?] for help
[libx264 @ 0000021814ec4ec0] using SAR=1/1
[libx264 @ 0000021814ec4ec0] using cpu capabilities: MMX2 SSE2Fast SSSE3 SSE4.2 AVX FMA3 BMI2 AVX2
[libx264 @ 0000021814ec4ec0] profile High, level 3.1, 4:2:0, 8-bit
[libx264 @ 0000021814ec4ec0] 264 - core 164 r3106 eaa68fa - H.264/MPEG-4 AVC codec - Copyleft 2003-2023 - http://www.videolan.org/x264.html - options: cabac=1 ref=3 deblock=1:0:0 analyse=0x3:0x113 me=hex subme=7 psy=1 psy_rd=1.00:0.00 mixed_ref=1 me_range=16 chroma_me=1 trellis=1 8x8dct=1 cqm=0 deadzone=21,11 fast_pskip=1 chroma_qp_offset=-2 threads=6 lookahead_threads=1 sliced_threads=0 nr=0 decimate=1 interlaced=0 bluray_compat=0 constrained_intra=0 bframes=3 b_pyramid=2 b_adapt=1 b_bias=0 direct=1 weightb=1 open_gop=0 weightp=2 keyint=250 keyint_min=25 scenecut=40 intra_refresh=0 rc_lookahead=40 rc=crf mbtree=1 crf=23.0 qcomp=0.60 qpmin=0 qpmax=69 qpstep=4 ip_ratio=1.40 aq=1:1.00
Output #0, mp4, to 'C:\Users\forju\AppData\Local\Temp\tmpr3pmt9z4\output.mp4':
  Metadata:
    COMPATIBLE_BRANDS: isommp42
    MAJOR_BRAND     : mp42
    MINOR_VERSION   : 0
    encoder         : Lavf60.4.100
  Stream #0:0: Video: h264 (avc1 / 0x31637661), yuv420p(tv, bt709, progressive), 720x1280 [SAR 1:1 DAR 9:16], q=2-31, 29.97 fps, 11988 tbn (default)
    Metadata:
      HANDLER_NAME    : ISO Media file produced by Google Inc. Created on: 09/23/2023.
      VENDOR_ID       : [0][0][0][0]
      DURATION        : 00:00:38.645000000
      encoder         : Lavc60.7.100 libx264
    Side data:
      cpb: bitrate max/min/avg: 0/0/0 buffer size: 0 vbv_delay: N/A
  Stream #0:1(eng): Audio: aac (LC) (mp4a / 0x6134706D), 48000 Hz, stereo, fltp, 128 kb/s (default)
    Metadata:
      HANDLER_NAME    : ISO Media file produced by Google Inc. Created on: 09/23/2023.
      VENDOR_ID       : [0][0][0][0]
      DURATION        : 00:00:38.646000000
      encoder         : Lavc60.7.100 aac
frame=    0 fps=0.0 q=0.0 size=       0kB time=00:00:00.07 bitrate=   0.0kbits/s speed=3.09x    frame=    0 fps=0.0 q=0.0 size=       0kB time=00:00:01.60 bitrate=   0.2kbits/s speed=2.71x    frame=   35 fps= 32 q=29.0 size=       0kB time=00:00:02.90 bitrate=   0.1kbits/s speed=2.63x    frame=   60 fps= 37 q=29.0 size=     256kB time=00:00:03.76 bitrate= 557.5kbits/s speed=2.33x    frame=   94 fps= 44 q=29.0 size=     512kB time=00:00:04.87 bitrate= 861.1kbits/s speed= 2.3x    frame=  124 fps= 47 q=29.0 size=     768kB time=00:00:05.87 bitrate=1071.1kbits/s speed=2.24x    frame=  148 fps= 47 q=29.0 size=     768kB time=00:00:06.66 bitrate= 944.2kbits/s speed=2.11x    frame=  171 fps= 46 q=29.0 size=    1024kB time=00:00:07.43 bitrate=1128.8kbits/s speed=2.02x    frame=  197 fps= 47 q=29.0 size=    1280kB time=00:00:08.34 bitrate=1256.0kbits/s speed=1.99x    frame=  230 fps= 49 q=29.0 size=    1536kB time=00:00:09.41 bitrate=1336.4kbits/s speed=   2x    frame=  265 fps= 51 q=29.0 size=    1792kB time=00:00:10.58 bitrate=1386.4kbits/s speed=2.03x    frame=  302 fps= 52 q=29.0 size=    2048kB time=00:00:11.84 bitrate=1416.1kbits/s speed=2.05x    frame=  334 fps= 53 q=29.0 size=    2304kB time=00:00:12.87 bitrate=1466.4kbits/s speed=2.05x    frame=  368 fps= 54 q=29.0 size=    2560kB time=00:00:14.00 bitrate=1497.8kbits/s speed=2.06x    frame=  402 fps= 55 q=29.0 size=    2816kB time=00:00:15.17 bitrate=1520.2kbits/s speed=2.08x    frame=  434 fps= 56 q=29.0 size=    3328kB time=00:00:16.19 bitrate=1683.0kbits/s speed=2.07x    frame=  468 fps= 56 q=29.0 size=    3328kB time=00:00:17.35 bitrate=1571.2kbits/s speed=2.08x    frame=  497 fps= 56 q=29.0 size=    3840kB time=00:00:18.31 bitrate=1717.9kbits/s speed=2.07x    frame=  533 fps= 57 q=29.0 size=    4096kB time=00:00:19.50 bitrate=1720.2kbits/s speed=2.08x    frame=  570 fps= 58 q=29.0 size=    4352kB time=00:00:20.74 bitrate=1718.7kbits/s speed= 2.1x    frame=  608 fps= 58 q=29.0 size=    4608kB time=00:00:22.04 bitrate=1712.4kbits/s speed=2.12x    frame=  641 fps= 59 q=29.0 size=    4608kB time=00:00:23.13 bitrate=1631.8kbits/s speed=2.12x    frame=  673 fps= 59 q=29.0 size=    5120kB time=00:00:24.17 bitrate=1734.8kbits/s speed=2.12x    frame=  708 fps= 59 q=29.0 size=    5376kB time=00:00:25.37 bitrate=1735.7kbits/s speed=2.13x    frame=  741 fps= 60 q=29.0 size=    5632kB time=00:00:26.43 bitrate=1745.0kbits/s speed=2.13x    frame=  769 fps= 60 q=29.0 size=    5632kB time=00:00:27.37 bitrate=1685.2kbits/s speed=2.12x    frame=  799 fps= 60 q=29.0 size=    6144kB time=00:00:28.40 bitrate=1772.1kbits/s speed=2.12x    frame=  834 fps= 60 q=29.0 size=    6400kB time=00:00:29.59 bitrate=1771.4kbits/s speed=2.12x    frame=  863 fps= 60 q=29.0 size=    6656kB time=00:00:30.55 bitrate=1784.4kbits/s speed=2.11x    frame=  897 fps= 60 q=29.0 size=    6656kB time=00:00:31.66 bitrate=1721.9kbits/s speed=2.11x    frame=  926 fps= 60 q=29.0 size=    7168kB time=00:00:32.62 bitrate=1799.8kbits/s speed= 2.1x    frame=  957 fps= 60 q=29.0 size=    7168kB time=00:00:33.67 bitrate=1743.9kbits/s speed= 2.1x    frame=  984 fps= 60 q=29.0 size=    7680kB time=00:00:34.56 bitrate=1820.1kbits/s speed=2.09x    frame= 1020 fps= 60 q=29.0 size=    7936kB time=00:00:35.76 bitrate=1817.9kbits/s speed= 2.1x    frame= 1049 fps= 60 q=29.0 size=    8192kB time=00:00:36.72 bitrate=1827.5kbits/s speed=2.09x    frame= 1081 fps= 60 q=29.0 size=    8448kB time=00:00:37.81 bitrate=1830.4kbits/s speed=2.09x    frame= 1158 fps= 61 q=-1.0 Lsize=    9091kB time=00:00:38.64 bitrate=1927.3kbits/s speed=2.02x    
video:8435kB audio:617kB subtitle:0kB other streams:0kB global headers:0kB muxing overhead: 0.438162%
[libx264 @ 0000021814ec4ec0] frame I:11    Avg QP:20.12  size: 53058
[libx264 @ 0000021814ec4ec0] frame P:726   Avg QP:23.87  size:  8593
[libx264 @ 0000021814ec4ec0] frame B:421   Avg QP:25.49  size:  4310
[libx264 @ 0000021814ec4ec0] consecutive B-frames: 44.5% 16.2% 14.8% 24.5%
[libx264 @ 0000021814ec4ec0] mb I  I16..4: 10.1% 75.2% 14.7%
[libx264 @ 0000021814ec4ec0] mb P  I16..4:  4.1% 13.6%  0.9%  P16..4: 35.0%  5.8%  1.5%  0.0%  0.0%    skip:39.2%
[libx264 @ 0000021814ec4ec0] mb B  I16..4:  1.3%  2.8%  0.1%  B16..8: 34.2%  3.9%  0.3%  direct: 0.8%  skip:56.8%  L0:59.4% L1:39.3% BI: 1.3%
[libx264 @ 0000021814ec4ec0] 8x8 transform intra:72.4% inter:90.3%
[libx264 @ 0000021814ec4ec0] coded y,uvDC,uvAC intra: 35.2% 36.0% 6.1% inter: 9.0% 9.3% 0.2%
[libx264 @ 0000021814ec4ec0] i16 v,h,dc,p: 29% 38% 10% 23%
[libx264 @ 0000021814ec4ec0] i8 v,h,dc,ddl,ddr,vr,hd,vl,hu: 29% 20% 26%  4%  4%  4%  4%  4%  4%
[libx264 @ 0000021814ec4ec0] i4 v,h,dc,ddl,ddr,vr,hd,vl,hu: 29% 26% 17%  4%  5%  5%  5%  4%  4%
[libx264 @ 0000021814ec4ec0] i8c dc,h,v,p: 56% 21% 20%  3%
[libx264 @ 0000021814ec4ec0] Weighted P-Frames: Y:0.0% UV:0.0%
[libx264 @ 0000021814ec4ec0] ref P L0: 79.4%  9.2%  7.7%  3.7%
[libx264 @ 0000021814ec4ec0] ref B L0: 89.8%  8.1%  2.1%
[libx264 @ 0000021814ec4ec0] ref B L1: 97.9%  2.1%
[libx264 @ 0000021814ec4ec0] kb/s:1788.23
[aac @ 0000021814e7db40] Qavg: 738.889
